<mxfile host="app.diagrams.net" modified="2022-08-31T16:16:47.172Z" agent="5.0 (Windows)" etag="kdwUSVY6WeTCD8ByEoNf" version="20.2.7" type="github">
  <diagram id="kBEQkJ9R00Mu1QqiutLS" name="Seite-1">
    <mxGraphModel dx="1476" dy="904" grid="1" gridSize="10" guides="1" tooltips="1" connect="1" arrows="1" fold="1" page="1" pageScale="1" pageWidth="827" pageHeight="1169" math="0" shadow="0">
      <root>
        <mxCell id="0" />
        <mxCell id="1" parent="0" />
        <mxCell id="1Yj2rp-FqBe1VxQH6b2S-27" style="edgeStyle=orthogonalEdgeStyle;rounded=0;orthogonalLoop=1;jettySize=auto;html=1;exitX=1;exitY=0.25;exitDx=0;exitDy=0;entryX=0;entryY=0.5;entryDx=0;entryDy=0;startArrow=block;startFill=1;endArrow=none;endFill=0;" edge="1" parent="1" source="1Yj2rp-FqBe1VxQH6b2S-3" target="1Yj2rp-FqBe1VxQH6b2S-18">
          <mxGeometry relative="1" as="geometry" />
        </mxCell>
        <mxCell id="1Yj2rp-FqBe1VxQH6b2S-28" style="edgeStyle=orthogonalEdgeStyle;rounded=0;orthogonalLoop=1;jettySize=auto;html=1;exitX=1;exitY=0.5;exitDx=0;exitDy=0;entryX=0;entryY=0.5;entryDx=0;entryDy=0;fillColor=#60a917;strokeColor=#2D7600;startArrow=classic;startFill=1;endArrow=none;endFill=0;" edge="1" parent="1" source="1Yj2rp-FqBe1VxQH6b2S-3" target="1Yj2rp-FqBe1VxQH6b2S-19">
          <mxGeometry relative="1" as="geometry" />
        </mxCell>
        <mxCell id="1Yj2rp-FqBe1VxQH6b2S-29" style="edgeStyle=orthogonalEdgeStyle;rounded=0;orthogonalLoop=1;jettySize=auto;html=1;exitX=1;exitY=0.75;exitDx=0;exitDy=0;entryX=0;entryY=0.5;entryDx=0;entryDy=0;startArrow=classic;startFill=1;endArrow=none;endFill=0;" edge="1" parent="1" source="1Yj2rp-FqBe1VxQH6b2S-3" target="1Yj2rp-FqBe1VxQH6b2S-20">
          <mxGeometry relative="1" as="geometry">
            <Array as="points">
              <mxPoint x="410" y="450" />
              <mxPoint x="410" y="550" />
            </Array>
          </mxGeometry>
        </mxCell>
        <mxCell id="1Yj2rp-FqBe1VxQH6b2S-38" style="edgeStyle=orthogonalEdgeStyle;rounded=0;orthogonalLoop=1;jettySize=auto;html=1;exitX=1;exitY=0.75;exitDx=0;exitDy=0;entryX=0;entryY=0.5;entryDx=0;entryDy=0;fillColor=#e51400;strokeColor=#B20000;" edge="1" parent="1" source="1Yj2rp-FqBe1VxQH6b2S-3" target="1Yj2rp-FqBe1VxQH6b2S-36">
          <mxGeometry relative="1" as="geometry">
            <Array as="points">
              <mxPoint x="350" y="450" />
              <mxPoint x="350" y="600" />
              <mxPoint x="500" y="600" />
              <mxPoint x="500" y="730" />
            </Array>
          </mxGeometry>
        </mxCell>
        <mxCell id="1Yj2rp-FqBe1VxQH6b2S-48" style="edgeStyle=orthogonalEdgeStyle;rounded=0;orthogonalLoop=1;jettySize=auto;html=1;exitX=0.5;exitY=0;exitDx=0;exitDy=0;entryX=0.5;entryY=1;entryDx=0;entryDy=0;" edge="1" parent="1" source="1Yj2rp-FqBe1VxQH6b2S-3" target="1Yj2rp-FqBe1VxQH6b2S-33">
          <mxGeometry relative="1" as="geometry" />
        </mxCell>
        <mxCell id="1Yj2rp-FqBe1VxQH6b2S-50" style="edgeStyle=orthogonalEdgeStyle;rounded=0;orthogonalLoop=1;jettySize=auto;html=1;" edge="1" parent="1" source="1Yj2rp-FqBe1VxQH6b2S-3" target="1Yj2rp-FqBe1VxQH6b2S-34">
          <mxGeometry relative="1" as="geometry">
            <mxPoint x="350.0000000000001" y="310" as="targetPoint" />
            <Array as="points">
              <mxPoint x="295" y="330" />
              <mxPoint x="440" y="330" />
            </Array>
          </mxGeometry>
        </mxCell>
        <mxCell id="1Yj2rp-FqBe1VxQH6b2S-51" style="edgeStyle=orthogonalEdgeStyle;rounded=0;orthogonalLoop=1;jettySize=auto;html=1;entryX=0.5;entryY=1;entryDx=0;entryDy=0;fillColor=#60a917;strokeColor=#2D7600;" edge="1" parent="1" source="1Yj2rp-FqBe1VxQH6b2S-3" target="1Yj2rp-FqBe1VxQH6b2S-35">
          <mxGeometry relative="1" as="geometry">
            <Array as="points">
              <mxPoint x="295" y="340" />
              <mxPoint x="590" y="340" />
            </Array>
          </mxGeometry>
        </mxCell>
        <mxCell id="1Yj2rp-FqBe1VxQH6b2S-13" style="edgeStyle=orthogonalEdgeStyle;rounded=0;orthogonalLoop=1;jettySize=auto;html=1;exitX=0.5;exitY=0;exitDx=0;exitDy=0;" edge="1" parent="1" source="1Yj2rp-FqBe1VxQH6b2S-2" target="1Yj2rp-FqBe1VxQH6b2S-12">
          <mxGeometry relative="1" as="geometry" />
        </mxCell>
        <mxCell id="1Yj2rp-FqBe1VxQH6b2S-2" value="CONFIG-Repository" style="whiteSpace=wrap;html=1;aspect=fixed;" vertex="1" parent="1">
          <mxGeometry x="255" y="650" width="80" height="80" as="geometry" />
        </mxCell>
        <mxCell id="1Yj2rp-FqBe1VxQH6b2S-14" style="edgeStyle=orthogonalEdgeStyle;rounded=0;orthogonalLoop=1;jettySize=auto;html=1;entryX=0.5;entryY=1;entryDx=0;entryDy=0;" edge="1" parent="1" source="1Yj2rp-FqBe1VxQH6b2S-12" target="1Yj2rp-FqBe1VxQH6b2S-3">
          <mxGeometry relative="1" as="geometry" />
        </mxCell>
        <mxCell id="1Yj2rp-FqBe1VxQH6b2S-12" value="&lt;div&gt;Messaging&lt;/div&gt;&lt;div&gt;Service&lt;/div&gt;" style="ellipse;whiteSpace=wrap;html=1;aspect=fixed;" vertex="1" parent="1">
          <mxGeometry x="258" y="534" width="75" height="75" as="geometry" />
        </mxCell>
        <mxCell id="1Yj2rp-FqBe1VxQH6b2S-16" style="edgeStyle=orthogonalEdgeStyle;rounded=0;orthogonalLoop=1;jettySize=auto;html=1;entryX=0.5;entryY=1;entryDx=0;entryDy=0;" edge="1" parent="1" source="1Yj2rp-FqBe1VxQH6b2S-15" target="1Yj2rp-FqBe1VxQH6b2S-2">
          <mxGeometry relative="1" as="geometry" />
        </mxCell>
        <mxCell id="1Yj2rp-FqBe1VxQH6b2S-15" value="&lt;div align=&quot;left&quot;&gt;- Data Sources&lt;/div&gt;&lt;div align=&quot;left&quot;&gt;- Layers&lt;/div&gt;&lt;div align=&quot;left&quot;&gt;- Styles&lt;/div&gt;&lt;div align=&quot;left&quot;&gt;- Layer Bundles&lt;/div&gt;&lt;div align=&quot;left&quot;&gt;- Services&lt;br&gt;&lt;/div&gt;&lt;div align=&quot;left&quot;&gt;&lt;br&gt;&lt;/div&gt;&lt;div align=&quot;left&quot;&gt;- Caches (GWC)&lt;/div&gt;&lt;div align=&quot;left&quot;&gt;&lt;br&gt;&lt;/div&gt;&lt;div align=&quot;left&quot;&gt;- Users&lt;/div&gt;&lt;div align=&quot;left&quot;&gt;&lt;span style=&quot;white-space: pre;&quot;&gt;	&lt;/span&gt;- Roles&lt;/div&gt;&lt;div align=&quot;left&quot;&gt;&lt;span style=&quot;white-space: pre;&quot;&gt;	&lt;/span&gt;- Groups&lt;/div&gt;&lt;div align=&quot;left&quot;&gt;&lt;span style=&quot;white-space: pre;&quot;&gt;	&lt;/span&gt;- Rights&lt;/div&gt;" style="rounded=0;whiteSpace=wrap;html=1;align=left;" vertex="1" parent="1">
          <mxGeometry x="360" y="650" width="120" height="210" as="geometry" />
        </mxCell>
        <mxCell id="1Yj2rp-FqBe1VxQH6b2S-18" value="GWC" style="rounded=0;whiteSpace=wrap;html=1;" vertex="1" parent="1">
          <mxGeometry x="530" y="360" width="120" height="60" as="geometry" />
        </mxCell>
        <mxCell id="1Yj2rp-FqBe1VxQH6b2S-19" value="NFS RasterDataStore" style="rounded=0;whiteSpace=wrap;html=1;" vertex="1" parent="1">
          <mxGeometry x="530" y="440" width="120" height="60" as="geometry" />
        </mxCell>
        <mxCell id="1Yj2rp-FqBe1VxQH6b2S-24" style="edgeStyle=orthogonalEdgeStyle;rounded=0;orthogonalLoop=1;jettySize=auto;html=1;exitX=1;exitY=0.5;exitDx=0;exitDy=0;entryX=0;entryY=0.5;entryDx=0;entryDy=0;" edge="1" parent="1" source="1Yj2rp-FqBe1VxQH6b2S-20" target="1Yj2rp-FqBe1VxQH6b2S-21">
          <mxGeometry relative="1" as="geometry">
            <Array as="points">
              <mxPoint x="660" y="550" />
              <mxPoint x="660" y="535" />
            </Array>
          </mxGeometry>
        </mxCell>
        <mxCell id="1Yj2rp-FqBe1VxQH6b2S-25" style="edgeStyle=orthogonalEdgeStyle;rounded=0;orthogonalLoop=1;jettySize=auto;html=1;exitX=1;exitY=0.5;exitDx=0;exitDy=0;entryX=0;entryY=0.5;entryDx=0;entryDy=0;" edge="1" parent="1" source="1Yj2rp-FqBe1VxQH6b2S-20" target="1Yj2rp-FqBe1VxQH6b2S-22">
          <mxGeometry relative="1" as="geometry">
            <Array as="points">
              <mxPoint x="660" y="550" />
              <mxPoint x="660" y="572" />
              <mxPoint x="690" y="572" />
            </Array>
          </mxGeometry>
        </mxCell>
        <mxCell id="1Yj2rp-FqBe1VxQH6b2S-26" style="edgeStyle=orthogonalEdgeStyle;rounded=0;orthogonalLoop=1;jettySize=auto;html=1;exitX=1;exitY=0.5;exitDx=0;exitDy=0;entryX=0;entryY=0.5;entryDx=0;entryDy=0;" edge="1" parent="1" source="1Yj2rp-FqBe1VxQH6b2S-20" target="1Yj2rp-FqBe1VxQH6b2S-23">
          <mxGeometry relative="1" as="geometry">
            <Array as="points">
              <mxPoint x="660" y="550" />
              <mxPoint x="660" y="615" />
            </Array>
          </mxGeometry>
        </mxCell>
        <mxCell id="1Yj2rp-FqBe1VxQH6b2S-20" value="&lt;div&gt;GIS-DB&lt;/div&gt;&lt;div&gt;read only&lt;br&gt;&lt;/div&gt;" style="rounded=0;whiteSpace=wrap;html=1;" vertex="1" parent="1">
          <mxGeometry x="530" y="520" width="120" height="60" as="geometry" />
        </mxCell>
        <mxCell id="1Yj2rp-FqBe1VxQH6b2S-21" value="GIS-DB" style="rounded=0;whiteSpace=wrap;html=1;" vertex="1" parent="1">
          <mxGeometry x="690" y="520" width="120" height="30" as="geometry" />
        </mxCell>
        <mxCell id="1Yj2rp-FqBe1VxQH6b2S-22" value="GIS-DB" style="rounded=0;whiteSpace=wrap;html=1;" vertex="1" parent="1">
          <mxGeometry x="690" y="556.5" width="120" height="30" as="geometry" />
        </mxCell>
        <mxCell id="1Yj2rp-FqBe1VxQH6b2S-23" value="GIS-DB" style="rounded=0;whiteSpace=wrap;html=1;" vertex="1" parent="1">
          <mxGeometry x="690" y="600" width="120" height="30" as="geometry" />
        </mxCell>
        <mxCell id="1Yj2rp-FqBe1VxQH6b2S-46" style="edgeStyle=orthogonalEdgeStyle;rounded=0;orthogonalLoop=1;jettySize=auto;html=1;exitX=0.5;exitY=1;exitDx=0;exitDy=0;entryX=0;entryY=0.5;entryDx=0;entryDy=0;fillColor=#e51400;strokeColor=#B20000;" edge="1" parent="1" source="1Yj2rp-FqBe1VxQH6b2S-32" target="1Yj2rp-FqBe1VxQH6b2S-3">
          <mxGeometry relative="1" as="geometry" />
        </mxCell>
        <mxCell id="1Yj2rp-FqBe1VxQH6b2S-32" value="&lt;div&gt;WFS with&lt;/div&gt;&lt;div&gt;Feature Access / Write Access&lt;br&gt;&lt;/div&gt;" style="rounded=0;whiteSpace=wrap;html=1;" vertex="1" parent="1">
          <mxGeometry x="80" y="240" width="120" height="60" as="geometry" />
        </mxCell>
        <mxCell id="1Yj2rp-FqBe1VxQH6b2S-33" value="&lt;div&gt;WFS with&lt;/div&gt;&lt;div&gt;read only access&lt;br&gt;&lt;/div&gt;" style="rounded=0;whiteSpace=wrap;html=1;" vertex="1" parent="1">
          <mxGeometry x="230" y="240" width="130" height="60" as="geometry" />
        </mxCell>
        <mxCell id="1Yj2rp-FqBe1VxQH6b2S-34" value="WMS" style="rounded=0;whiteSpace=wrap;html=1;" vertex="1" parent="1">
          <mxGeometry x="380" y="240" width="120" height="60" as="geometry" />
        </mxCell>
        <mxCell id="1Yj2rp-FqBe1VxQH6b2S-35" value="Raster Service" style="rounded=0;whiteSpace=wrap;html=1;" vertex="1" parent="1">
          <mxGeometry x="530" y="240" width="120" height="60" as="geometry" />
        </mxCell>
        <mxCell id="1Yj2rp-FqBe1VxQH6b2S-39" style="edgeStyle=orthogonalEdgeStyle;rounded=0;orthogonalLoop=1;jettySize=auto;html=1;exitX=0.5;exitY=0;exitDx=0;exitDy=0;entryX=0.5;entryY=1;entryDx=0;entryDy=0;" edge="1" parent="1" source="1Yj2rp-FqBe1VxQH6b2S-36" target="1Yj2rp-FqBe1VxQH6b2S-37">
          <mxGeometry relative="1" as="geometry" />
        </mxCell>
        <mxCell id="1Yj2rp-FqBe1VxQH6b2S-42" style="edgeStyle=orthogonalEdgeStyle;rounded=0;orthogonalLoop=1;jettySize=auto;html=1;exitX=1;exitY=0.5;exitDx=0;exitDy=0;entryX=0;entryY=0.5;entryDx=0;entryDy=0;" edge="1" parent="1" source="1Yj2rp-FqBe1VxQH6b2S-36" target="1Yj2rp-FqBe1VxQH6b2S-41">
          <mxGeometry relative="1" as="geometry" />
        </mxCell>
        <mxCell id="1Yj2rp-FqBe1VxQH6b2S-44" style="edgeStyle=orthogonalEdgeStyle;rounded=0;orthogonalLoop=1;jettySize=auto;html=1;exitX=1;exitY=0.5;exitDx=0;exitDy=0;" edge="1" parent="1" source="1Yj2rp-FqBe1VxQH6b2S-36" target="1Yj2rp-FqBe1VxQH6b2S-43">
          <mxGeometry relative="1" as="geometry" />
        </mxCell>
        <mxCell id="1Yj2rp-FqBe1VxQH6b2S-36" value="&lt;div&gt;GIS-DB &lt;br&gt;&lt;/div&gt;&lt;div&gt;transactions&lt;br&gt;&lt;/div&gt;" style="rounded=0;whiteSpace=wrap;html=1;" vertex="1" parent="1">
          <mxGeometry x="530" y="700" width="120" height="60" as="geometry" />
        </mxCell>
        <mxCell id="1Yj2rp-FqBe1VxQH6b2S-40" style="edgeStyle=orthogonalEdgeStyle;rounded=0;orthogonalLoop=1;jettySize=auto;html=1;exitX=0.5;exitY=0;exitDx=0;exitDy=0;entryX=0.5;entryY=1;entryDx=0;entryDy=0;" edge="1" parent="1" source="1Yj2rp-FqBe1VxQH6b2S-37" target="1Yj2rp-FqBe1VxQH6b2S-20">
          <mxGeometry relative="1" as="geometry" />
        </mxCell>
        <mxCell id="1Yj2rp-FqBe1VxQH6b2S-37" value="&lt;div&gt;Messaging&lt;/div&gt;&lt;div&gt;Service&lt;/div&gt;" style="ellipse;whiteSpace=wrap;html=1;aspect=fixed;" vertex="1" parent="1">
          <mxGeometry x="552.5" y="600" width="75" height="75" as="geometry" />
        </mxCell>
        <mxCell id="1Yj2rp-FqBe1VxQH6b2S-41" value="GIS-DB" style="rounded=0;whiteSpace=wrap;html=1;" vertex="1" parent="1">
          <mxGeometry x="690" y="700" width="120" height="20" as="geometry" />
        </mxCell>
        <mxCell id="1Yj2rp-FqBe1VxQH6b2S-43" value="GIS-DB" style="rounded=0;whiteSpace=wrap;html=1;" vertex="1" parent="1">
          <mxGeometry x="690" y="740" width="120" height="20" as="geometry" />
        </mxCell>
        <mxCell id="1Yj2rp-FqBe1VxQH6b2S-60" value="" style="group" vertex="1" connectable="0" parent="1">
          <mxGeometry x="880" y="360" width="120" height="120" as="geometry" />
        </mxCell>
        <mxCell id="1Yj2rp-FqBe1VxQH6b2S-52" value="" style="whiteSpace=wrap;html=1;aspect=fixed;" vertex="1" parent="1Yj2rp-FqBe1VxQH6b2S-60">
          <mxGeometry width="120" height="120" as="geometry" />
        </mxCell>
        <mxCell id="1Yj2rp-FqBe1VxQH6b2S-53" value="&lt;div&gt;pgTileServ&lt;/div&gt;" style="rounded=0;whiteSpace=wrap;html=1;" vertex="1" parent="1Yj2rp-FqBe1VxQH6b2S-60">
          <mxGeometry x="10" y="10" width="70" height="20" as="geometry" />
        </mxCell>
        <mxCell id="1Yj2rp-FqBe1VxQH6b2S-54" value="&lt;div&gt;pgTileServ&lt;/div&gt;" style="rounded=0;whiteSpace=wrap;html=1;" vertex="1" parent="1Yj2rp-FqBe1VxQH6b2S-60">
          <mxGeometry x="20" y="20" width="70" height="20" as="geometry" />
        </mxCell>
        <mxCell id="1Yj2rp-FqBe1VxQH6b2S-55" value="&lt;div&gt;pgTileServ&lt;/div&gt;" style="rounded=0;whiteSpace=wrap;html=1;" vertex="1" parent="1Yj2rp-FqBe1VxQH6b2S-60">
          <mxGeometry x="30" y="30" width="70" height="20" as="geometry" />
        </mxCell>
        <mxCell id="1Yj2rp-FqBe1VxQH6b2S-56" value="&lt;div&gt;pgTileServ&lt;/div&gt;" style="rounded=0;whiteSpace=wrap;html=1;" vertex="1" parent="1Yj2rp-FqBe1VxQH6b2S-60">
          <mxGeometry x="40" y="40" width="70" height="20" as="geometry" />
        </mxCell>
        <mxCell id="1Yj2rp-FqBe1VxQH6b2S-57" value="&lt;div&gt;pgTileServ&lt;/div&gt;" style="rounded=0;whiteSpace=wrap;html=1;" vertex="1" parent="1Yj2rp-FqBe1VxQH6b2S-60">
          <mxGeometry x="20" y="55" width="70" height="20" as="geometry" />
        </mxCell>
        <mxCell id="1Yj2rp-FqBe1VxQH6b2S-58" value="&lt;div&gt;pgTileServ&lt;/div&gt;" style="rounded=0;whiteSpace=wrap;html=1;" vertex="1" parent="1Yj2rp-FqBe1VxQH6b2S-60">
          <mxGeometry x="30" y="60" width="70" height="25" as="geometry" />
        </mxCell>
        <mxCell id="1Yj2rp-FqBe1VxQH6b2S-59" value="&lt;div&gt;pgTileServ&lt;/div&gt;" style="rounded=0;whiteSpace=wrap;html=1;" vertex="1" parent="1Yj2rp-FqBe1VxQH6b2S-60">
          <mxGeometry x="40" y="75" width="70" height="20" as="geometry" />
        </mxCell>
        <mxCell id="1Yj2rp-FqBe1VxQH6b2S-61" value="" style="group" vertex="1" connectable="0" parent="1">
          <mxGeometry x="230" y="360" width="130" height="120" as="geometry" />
        </mxCell>
        <mxCell id="1Yj2rp-FqBe1VxQH6b2S-3" value="" style="rounded=0;whiteSpace=wrap;html=1;" vertex="1" parent="1Yj2rp-FqBe1VxQH6b2S-61">
          <mxGeometry width="130" height="120" as="geometry" />
        </mxCell>
        <mxCell id="1Yj2rp-FqBe1VxQH6b2S-1" value="GS-POD" style="whiteSpace=wrap;html=1;aspect=fixed;" vertex="1" parent="1Yj2rp-FqBe1VxQH6b2S-61">
          <mxGeometry x="10" y="10" width="30" height="30" as="geometry" />
        </mxCell>
        <mxCell id="1Yj2rp-FqBe1VxQH6b2S-4" value="GS-POD" style="whiteSpace=wrap;html=1;aspect=fixed;" vertex="1" parent="1Yj2rp-FqBe1VxQH6b2S-61">
          <mxGeometry x="20" y="20" width="30" height="30" as="geometry" />
        </mxCell>
        <mxCell id="1Yj2rp-FqBe1VxQH6b2S-5" value="GS-POD" style="whiteSpace=wrap;html=1;aspect=fixed;" vertex="1" parent="1Yj2rp-FqBe1VxQH6b2S-61">
          <mxGeometry x="30" y="30" width="30" height="30" as="geometry" />
        </mxCell>
        <mxCell id="1Yj2rp-FqBe1VxQH6b2S-6" value="GS-POD" style="whiteSpace=wrap;html=1;aspect=fixed;" vertex="1" parent="1Yj2rp-FqBe1VxQH6b2S-61">
          <mxGeometry x="40" y="40" width="30" height="30" as="geometry" />
        </mxCell>
        <mxCell id="1Yj2rp-FqBe1VxQH6b2S-7" value="GS-POD" style="whiteSpace=wrap;html=1;aspect=fixed;" vertex="1" parent="1Yj2rp-FqBe1VxQH6b2S-61">
          <mxGeometry x="50" y="50" width="30" height="30" as="geometry" />
        </mxCell>
        <mxCell id="1Yj2rp-FqBe1VxQH6b2S-8" value="GS-POD" style="whiteSpace=wrap;html=1;aspect=fixed;" vertex="1" parent="1Yj2rp-FqBe1VxQH6b2S-61">
          <mxGeometry x="60" y="60" width="30" height="30" as="geometry" />
        </mxCell>
        <mxCell id="1Yj2rp-FqBe1VxQH6b2S-9" value="GS-POD" style="whiteSpace=wrap;html=1;aspect=fixed;" vertex="1" parent="1Yj2rp-FqBe1VxQH6b2S-61">
          <mxGeometry x="70" y="70" width="30" height="30" as="geometry" />
        </mxCell>
        <mxCell id="1Yj2rp-FqBe1VxQH6b2S-10" value="GS-POD" style="whiteSpace=wrap;html=1;aspect=fixed;" vertex="1" parent="1Yj2rp-FqBe1VxQH6b2S-61">
          <mxGeometry x="80" y="80" width="30" height="30" as="geometry" />
        </mxCell>
        <mxCell id="1Yj2rp-FqBe1VxQH6b2S-62" value="LoadBalancing" style="rounded=0;whiteSpace=wrap;html=1;" vertex="1" parent="1">
          <mxGeometry x="80" y="160" width="570" height="60" as="geometry" />
        </mxCell>
      </root>
    </mxGraphModel>
  </diagram>
</mxfile>
